<?xml version="1.0" encoding="UTF-8" standalone="no"?>
<!-- Created with Inkscape (http://www.inkscape.org/) -->

<svg
   width="91.071419mm"
   height="91.071419mm"
   viewBox="0 0 91.071419 91.071419"
   version="1.1"
   id="svg1"
   sodipodi:docname="logo-circle.svg"
   inkscape:version="1.4 (e7c3feb100, 2024-10-09)"
   xmlns:inkscape="http://www.inkscape.org/namespaces/inkscape"
   xmlns:sodipodi="http://sodipodi.sourceforge.net/DTD/sodipodi-0.dtd"
   xmlns="http://www.w3.org/2000/svg"
   xmlns:svg="http://www.w3.org/2000/svg">
  <sodipodi:namedview
     id="namedview1"
     pagecolor="#ffffff"
     bordercolor="#000000"
     borderopacity="0.25"
     inkscape:showpageshadow="2"
     inkscape:pageopacity="0.0"
     inkscape:pagecheckerboard="0"
     inkscape:deskcolor="#d1d1d1"
     inkscape:document-units="mm"
     inkscape:zoom="1.86393"
     inkscape:cx="102.20341"
     inkscape:cy="162.29151"
     inkscape:window-width="1920"
     inkscape:window-height="1020"
     inkscape:window-x="0"
     inkscape:window-y="0"
     inkscape:window-maximized="1"
     inkscape:current-layer="layer1" />
  <defs
     id="defs1" />
  <g
     inkscape:label="Layer 1"
     inkscape:groupmode="layer"
     id="layer1"
     transform="translate(-48.683331,-68.262493)">
    <g
       id="g53"
       transform="matrix(1.1345655,0,0,1.1345655,-81.860417,-37.898252)">
      <circle
         style="fill:#ffffff;fill-opacity:1;stroke:none;stroke-width:1.6;stroke-linejoin:round;stroke-dasharray:none"
         id="circle47"
         cx="146.21913"
         cy="118.38602"
         r="3.6037846" />
      <circle
         style="fill:#ffffff;fill-opacity:1;stroke:none;stroke-width:1.6;stroke-linejoin:round;stroke-dasharray:none"
         id="circle48"
         cx="164.22241"
         cy="118.36559"
         r="3.6037846" />
      <g
         id="g50"
         transform="matrix(1.0291538,0,0,1.0291538,-10.539141,54.952355)">
        <path
           style="opacity:1;fill:#d62900;fill-opacity:1;stroke-width:0.264583"
           d="m 161.82066,67.350854 -16.82337,8.22613 5.69026,16.32857 10.63831,4.57695 10.63831,-5.07175 6.67987,-16.39042 z"
           id="path48"
           sodipodi:nodetypes="ccccccc" />
        <path
           style="opacity:1;fill:#fa6404;fill-opacity:1;stroke-width:0.264583"
           d="m 161.69184,67.258294 0.0905,14.92401 -17.00433,-6.78364 5.96961,16.55209 10.58248,4.52243 0.54269,-14.20043 16.82343,-7.41678 z"
           id="path49" />
        <path
           style="opacity:1;fill:#fbac4c;fill-opacity:1;stroke-width:0.264583"
           d="m 144.75449,75.545574 17.0125,-8.12251 0.064,14.96588 z"
           id="path50" />
      </g>
      <path
         style="fill:#f48011;fill-opacity:1;stroke-width:0.264583"
         d="m 117.20602,114.98037 -0.60622,4.95084 2.27334,4.44565 3.83943,2.32386 4.14254,-0.0505 4.04149,-1.81868 1.66712,-3.43528 -0.0505,-5.96121 -7.32521,5.91069 z"
         id="path51" />
      <path
         style="fill:#f48011;fill-opacity:1;stroke-width:0.264583"
         d="m 193.79247,115.08882 0.60622,4.95084 -2.27334,4.44565 -3.83943,2.32386 -4.14254,-0.0505 -4.0415,-1.81868 -1.66712,-3.43528 0.0505,-5.96121 7.32522,5.91069 z"
         id="path52" />
      <path
         style="fill:#000000;stroke-width:0.492653"
         d="m 193.34612,112.99874 c -0.11476,-0.0304 -0.23102,-0.0276 -0.34776,0.009 -0.34785,0.10965 -2.7009,2.15032 -3.76787,3.2676 -1.40543,1.47173 -3.58995,3.56802 -3.71822,3.56802 -0.0711,0 -0.30166,-0.18287 -0.51222,-0.40632 -0.21057,-0.22345 -0.79349,-0.73501 -1.29533,-1.13672 -0.50184,-0.40172 -1.74227,-1.54184 -2.75665,-2.53364 -1.01439,-0.9918 -1.95289,-1.81083 -2.08556,-1.82003 -0.88463,-0.0613 -1.32192,0.4528 -1.76097,2.06953 -0.37433,1.37837 -0.40603,4.14078 -0.0616,5.38371 0.33492,1.20866 0.87154,2.31505 1.51504,3.12376 0.48432,0.60867 0.53302,0.72411 0.35769,0.84726 -1.24853,0.87698 -2.78724,2.04088 -4.06246,2.99039 -0.86986,0.64767 -1.05346,0.77151 -1.38886,1.01153 0,0 -0.27357,0.16174 -0.49807,0.16599 -0.27595,0.005 -0.57587,-0.14095 -1.88942,-0.6299 -1.31257,-0.48851 -1.97734,-0.72957 -3.45727,-1.43315 -1.26581,-0.60178 -2.17314,-0.94878 -2.30886,-1.29919 -0.21208,-0.54758 -0.0131,-1.83884 -0.0131,-1.83884 0.0409,-0.83817 0.12831,-1.11267 0.36024,-1.17711 0.38278,-0.10636 1.70188,-0.58939 2.03057,-0.95603 0.49198,-0.54878 1.31277,-1.76397 1.45673,-2.23093 1.33618,-4.33432 -3.09825,-8.25222 -7.11438,-6.28571 -1.94354,0.95166 -3.20479,3.48348 -2.78262,5.5856 0.29647,1.47624 1.18106,2.88447 2.12248,3.37886 0.33011,0.17334 0.34145,0.21556 0.28565,1.06442 -0.032,0.48624 -0.007,0.71961 -0.12679,1.06088 -0.0867,0.24702 -5.1058,-2.46614 -5.4411,-2.45938 -0.3353,0.007 -6.793,2.73968 -6.793,2.73968 l -0.0863,-0.6194 c -0.2082,-1.49394 -0.17691,-1.61243 0.68585,-2.58812 0.93747,-1.06015 1.20556,-1.54641 1.41677,-2.56978 0.26403,-1.27929 -0.12048,-2.93293 -0.95469,-4.10493 -0.50042,-0.70304 -1.71812,-1.52648 -2.66398,-1.80145 -1.06303,-0.30903 -2.52278,-0.19714 -3.46898,0.26579 -1.89854,0.92887 -3.08582,3.06953 -2.91093,5.24827 0.0804,1.00152 0.74905,2.49103 1.48372,3.30579 0.48851,0.54177 1.82566,1.29869 2.29483,1.2989 0.19662,9e-5 0.22764,0.13045 0.22429,0.94502 -0.004,0.90462 0.3338,2.2347 -0.1304,2.75192 -0.56485,0.62939 -4.00357,2.06196 -4.90101,2.52876 -0.35639,0.18538 -1.41567,0.6638 -1.47731,0.61726 -0.20048,-0.15135 -4.40079,-2.85308 -6.03444,-3.97709 -1.72592,-1.18751 -1.66922,-1.02828 -0.79507,-2.23272 0.59694,-0.82248 1.01965,-1.78879 1.36,-3.10976 0.38134,-1.4801 0.30584,-3.81342 -0.17618,-5.44685 -0.37454,-1.26923 -0.7316,-1.72227 -1.35745,-1.72227 -0.38927,0 -0.78297,0.32739 -3.707,3.08176 l -3.27142,3.0815 -0.2971,-0.37679 c -0.1634,-0.20731 -1.10549,-1.11025 -2.09346,-2.00639 -0.98797,-0.89614 -2.51783,-2.29295 -3.39973,-3.10416 -1.43857,-1.32323 -1.64701,-1.47068 -2.02625,-1.43382 -0.75463,0.0734 -1.22321,1.08427 -1.62018,3.4952 -0.30664,1.86235 -0.19507,3.52102 0.34548,5.13346 1.05444,3.14538 3.13973,5.01093 6.57899,5.88601 1.76522,0.44914 4.44773,0.25561 5.65408,-0.4081 0.31372,-0.1726 0.62421,-0.3139 0.69017,-0.3139 0.13972,0 1.98235,1.22603 5.17394,3.44276 l 2.26352,1.57206 -0.43865,0.10489 c -0.24123,0.0577 -3.26358,0.12699 -6.71647,0.15402 -4.37032,0.0342 -6.36265,0.0944 -6.55633,0.19807 -0.15302,0.0819 -0.33398,0.29577 -0.40224,0.47531 -0.1552,0.40825 -0.15661,13.5731 -0.001,14.37643 0.17449,0.90384 1.10748,1.40788 1.95572,1.05653 0.85581,-0.35449 0.81298,0.003 0.83479,-6.95756 0.0109,-3.47553 0.0511,-6.35078 0.0896,-6.38933 0.0385,-0.0386 0.44912,-0.0153 0.91243,0.0517 0.46331,0.067 2.67776,0.12307 4.92087,0.12449 l 4.07846,0.003 c 0,0 2.17293,-0.0846 2.46453,0.0683 0.2916,0.15296 0.35545,0.65678 0.64747,1.48535 0.14162,0.40184 0.41462,1.47099 0.11044,1.74591 -0.25089,0.22679 -1.07473,0.1574 -1.07473,0.1574 -0.215,0.0523 -1.60948,0.0815 -3.88653,0.13163 -3.84603,0.0847 -4.16325,0.10939 -4.46695,0.34828 -0.77384,0.6087 -0.76369,0.51567 -0.78564,7.27299 -0.0111,3.40533 0.0297,6.32671 0.0909,6.49192 0.0647,0.17479 0.34698,0.40474 0.67515,0.54991 0.68881,0.30469 1.29736,0.18346 1.81214,-0.36075 l 0.33987,-0.35922 0.0425,-5.62073 0.0425,-5.62099 1.82614,-0.0835 c 1.00439,-0.046 3.07127,-0.14827 4.59297,-0.22735 1.5217,-0.0791 1.77057,-0.096 2.11807,-0.0308 0.3475,0.0652 0.57208,0.50274 0.49453,0.84852 -0.0776,0.34578 -0.3701,0.78951 -2.21137,1.23367 -1.24387,0.30006 -2.46911,0.70915 -2.73883,0.84675 -0.97904,0.49947 -0.94586,0.27619 -0.99059,6.63373 -0.04,5.68151 -0.0399,5.68169 0.24618,6.04538 0.15735,0.20004 0.40996,0.41693 0.56136,0.48193 0.51036,0.21913 1.37124,0.0503 1.79992,-0.35311 l 0.39664,-0.37347 -0.0873,-3.09322 c -0.0583,-2.06683 -0.0342,-3.71845 0.0728,-4.97765 l 0.16014,-1.88444 1.11737,-0.51451 c 0.6145,-0.28299 1.26868,-0.54396 1.44299,-0.61177 0.55548,-0.21608 0.33741,-0.13259 1.08163,-0.41925 l 0.29162,-0.0603 c 0,0 1.71152,5.66093 1.92686,5.95757 0.21535,0.29665 5.63016,2.61869 6.68102,3.18187 3.48979,1.87026 5.4475,2.36856 5.91535,2.36794 0.4293,-5.6e-4 8.613,-4.00175 11.84727,-5.74569 0.48843,-0.26336 1.2033,-0.91961 1.47248,-1.65737 0.24713,-0.6773 0.9234,-3.74293 1.19519,-3.89059 0.22006,-0.11956 0.46612,-0.0316 0.86013,0.10526 0.51525,0.17898 0.57905,0.15961 0.7696,0.22976 0.30325,0.11164 0.66505,0.31701 1.11706,0.52196 l 0.8218,0.37272 0.085,1.4743 c 0.0467,0.81089 0.0852,2.98097 0.0855,4.82235 3.3e-4,1.85785 0.0573,3.49657 0.1278,3.68207 0.31768,0.83558 1.66764,1.12269 2.33939,0.49746 l 0.38519,-0.35845 0.0405,-5.90969 c 0,0 0.0804,-5.03693 -0.0725,-5.56328 -0.0658,-0.22654 -0.19843,-0.51776 -0.49569,-0.62586 -0.29726,-0.10809 -0.79429,-0.34244 -2.99074,-1.05108 -0.73477,-0.23706 -1.78504,-0.82333 -1.92347,-1.48005 -0.13844,-0.65671 0.53048,-0.79406 0.87467,-0.88277 0.34419,-0.0887 1.66137,-0.0327 1.96251,-0.0261 2.34698,0.0514 2.60605,0.11522 3.85888,0.22422 1.00367,0.0873 1.84434,0.17618 1.86789,0.19756 0.0236,0.0214 0.0668,2.5776 0.0965,5.68056 l 0.054,5.64187 0.4165,0.42948 c 0.51002,0.52622 1.10049,0.66217 1.64742,0.37934 0.8389,-0.43382 0.80576,-0.13285 0.80576,-7.33002 0,-3.59859 -0.0365,-6.63821 -0.0812,-6.75466 -0.14606,-0.38064 -1.07507,-0.7363 -2.24544,-0.85948 -0.62004,-0.0653 -2.66362,-0.11945 -4.54129,-0.12093 -1.87766,-0.001 -2.50912,0.0673 -2.68246,-0.25292 -0.17783,-0.32846 0.16307,-0.98308 0.46206,-1.73559 0.29898,-0.75251 0.37708,-1.13266 0.85337,-1.38829 0.4763,-0.25563 6.18546,-0.17579 6.18546,-0.17579 l 5.11269,0.36944 4.9e-4,6.22868 4.9e-4,6.22843 0.48193,0.44171 c 0.63913,0.58572 1.0654,0.68313 1.63852,0.37449 0.83058,-0.44729 0.79322,-0.0776 0.82307,-8.1648 0.0298,-8.06865 0.0664,-7.6661 -0.72862,-7.99449 -0.29805,-0.12311 -0.9025,-0.13349 -2.54179,-0.0438 -3.22809,0.17664 -9.51179,-0.51052 -9.50519,-0.76009 0.001,-0.0481 0.40317,-0.68427 1.17259,-1.1849 0.76941,-0.50062 0.94236,-0.72773 1.73096,-1.29604 1.41603,-1.02046 2.61547,-1.9879 2.78108,-1.9879 0.0469,0 0.4431,0.14304 0.88036,0.31798 1.84908,0.73974 4.37305,0.68591 6.51636,-0.13901 0.64054,-0.24653 1.36607,-0.57262 1.61229,-0.7248 1.63578,-1.01097 3.54377,-3.44138 4.14745,-5.28316 0.33621,-1.0257 0.37469,-1.32055 0.37272,-2.83913 -0.003,-1.83162 -0.17181,-2.66408 -0.85165,-4.19187 -0.29918,-0.67236 -0.63104,-1.06288 -0.97531,-1.15403 z m -47.07231,2.50767 c 1.70275,0.004 2.8679,1.1569 2.8679,2.83811 0,1.22205 -0.52082,2.05044 -1.67161,2.65838 -0.91734,0.48463 -2.2775,0.29827 -3.04433,-0.41701 -0.16879,-0.15744 -0.41954,-0.50583 -0.55729,-0.77444 -0.99279,-1.93601 0.33347,-4.30967 2.40533,-4.30504 z m 17.98517,0.0384 c 0.84273,0.004 1.59858,0.33842 2.12961,0.94324 0.54128,0.61648 0.73821,1.2619 0.67058,2.19681 -0.0686,0.94766 -0.5473,1.69512 -1.43866,2.24621 -1.89257,1.17008 -4.14007,-0.15508 -4.14007,-2.44122 0,-0.86984 0.34107,-1.69615 0.93077,-2.25562 0.55587,-0.52739 0.99983,-0.69302 1.84777,-0.68942 z m -46.63263,0.95928 c 0.0364,-4.6e-4 0.0868,0.0354 0.15377,0.0835 0.47089,0.33817 5.15141,4.3197 6.0021,5.1057 0.86165,0.79612 1.05494,0.86591 1.60491,0.57893 0.45765,-0.23881 4.38863,-3.70528 5.03645,-4.44124 0.28494,-0.32371 0.55593,-0.55075 0.60209,-0.50459 0.0462,0.0462 0.0838,0.67666 0.0838,1.40099 0,3.59639 -1.55482,5.80841 -4.58481,6.52273 -1.85972,0.43842 -4.38678,0.11375 -5.82008,-0.74798 -1.33718,-0.80394 -2.50409,-2.42514 -2.88649,-4.01048 -0.0773,-0.32061 -0.1777,-1.37365 -0.22327,-2.33989 -0.0621,-1.31677 -0.0777,-1.64632 0.0316,-1.64768 z m 74.97078,10e-4 c 0.0559,0.0562 0.10025,0.78637 0.0988,1.62247 -0.003,1.69524 -0.26359,2.74522 -1.00205,4.04154 -0.71677,1.25826 -2.0917,2.34333 -3.65864,2.88751 -0.5587,0.19402 -1.23704,0.29926 -2.17976,0.33834 -1.16574,0.0483 -1.51568,0.012 -2.36077,-0.24567 -2.54377,-0.7756 -3.89175,-2.49178 -4.2699,-5.43642 -0.11376,-0.88579 -0.068,-2.34626 0.0733,-2.34626 0.0313,0 0.20732,0.17877 0.3913,0.39741 0.18397,0.21864 1.1627,1.06221 2.17492,1.87451 1.01222,0.8123 2.01637,1.66417 2.23144,1.89284 0.60254,0.64065 1.16333,0.94265 1.56366,0.84217 0.18925,-0.0475 0.84698,-0.55231 1.46158,-1.1217 0.6146,-0.56939 1.62237,-1.45056 2.23958,-1.95827 0.61722,-0.50771 1.57513,-1.36579 2.12859,-1.90684 0.55346,-0.54106 1.05203,-0.93785 1.10796,-0.88163 z m -46.06543,0.47047 c -1.40998,0 -2.09999,1.38282 -1.20088,2.40685 0.34117,0.38857 0.48922,0.4607 0.94502,0.46029 0.76536,-6.9e-4 1.35164,-0.39042 1.46056,-0.97099 0.20383,-1.08654 -0.31063,-1.89615 -1.2047,-1.89615 z m 17.97525,0.0194 c -0.83594,-0.11277 -1.72303,0.47644 -1.72303,1.38469 0,0.57291 0.31006,1.14899 0.75128,1.39614 0.52349,0.29325 1.30749,0.14808 1.7905,-0.33147 0.33188,-0.32949 0.39104,-0.48805 0.39104,-1.04812 0,-0.58064 -0.0511,-0.70558 -0.42567,-1.04024 -0.23255,-0.20779 -0.50547,-0.32341 -0.78412,-0.361 z m -16.0349,11.04454 c 0,0 2.73417,-1.46221 4.15112,-2.08765 4.45077,-1.96458 2.46627,-2.08297 7.70949,0.43086 1.97207,0.81161 4.177,1.79611 4.9911,2.17673 0.97611,0.45636 2.99069,1.30085 4.04688,1.73239 1.00171,0.40929 1.59609,0.72108 3.60178,1.66458 0.28615,0.13461 0.10003,0.43093 -0.0707,0.97516 -0.0788,0.2513 -1.00869,2.13858 -1.2362,2.8342 -0.28071,0.85831 -0.62888,1.29754 -1.8709,4.50989 -0.4558,1.17887 -1.55369,4.28319 -2.05332,5.20267 -0.45046,0.82898 -1.01433,2.9418 -1.40749,3.40724 -0.39315,0.46544 -4.63129,2.27371 -5.78828,2.79214 -1.54445,0.69204 -2.24489,1.0711 -2.92962,1.4402 -1.1922,0.64266 -1.96995,1.04944 -2.12764,1.0545 -0.12699,0.004 -0.74214,-0.35601 -1.35987,-0.63633 -0.63013,-0.28594 -2.83131,-1.19811 -3.33094,-1.42474 -0.54292,-0.24627 -5.92925,-2.49135 -6.12554,-2.67918 -0.10262,-0.0982 -1.77014,-4.4034 -2.73182,-7.63934 -0.57875,-1.94738 -2.12574,-5.89753 -2.42064,-6.86702 -0.2949,-0.96948 -0.35557,-1.07025 -0.62817,-1.7495 -0.22148,-0.55187 -0.13084,-0.33593 0.32088,-0.58397 0.80322,-0.44104 1.54892,-0.83355 2.47257,-1.29044 2.13769,-1.05739 2.63274,-1.2722 3.15303,-1.5094 0.22061,-0.10057 1.65596,-0.79457 2.14709,-1.03249 z"
         id="path53"
         sodipodi:nodetypes="ccssssssssssssssssssscssssszcssssssssscsssssssscccsscsssssccsssscsssscczsscssssscccccszzsssssccssccscczssssssscccscsccszszzssssccsssscszzccccssssscssssssscscccssssccsssssccssssssssssccscssssssssssssssssssssssssssscscssssssssssssssszsssscc" />
    </g>
  </g>
</svg>
